<svg id="Capa_1" enable-background="new 0 0 512 512" height="512" viewBox="0 0 512 512" width="512" xmlns="http://www.w3.org/2000/svg"><g><g><path d="m447 0h-382c-35.841 0-65 29.159-65 65v382c0 35.841 29.159 65 65 65h382c35.841 0 65-29.159 65-65v-382c0-35.841-29.159-65-65-65zm-382 30h382c19.299 0 35 15.701 35 35v56.75h-452v-56.75c0-19.299 15.701-35 35-35zm382 452h-382c-19.299 0-35-15.701-35-35v-295.25h452v295.25c0 19.299-15.701 35-35 35z"/></g><g><path d="m414.325 90.75h15c8.284 0 15-6.716 15-15s-6.716-15-15-15h-15c-8.284 0-15 6.716-15 15s6.716 15 15 15z"/></g><g><path d="m82.674 90.75h270.469c8.284 0 15-6.716 15-15s-6.716-15-15-15h-270.469c-8.284 0-15 6.716-15 15s6.716 15 15 15z"/></g><g><path d="m334.583 419.163h-157.166c-8.284 0-15 6.716-15 15s6.716 15 15 15h157.167c8.284 0 15-6.716 15-15s-6.717-15-15.001-15z"/></g><g><path d="m431.877 397.948 9.116-9.116c8.162-8.162 4.405-22.114-6.725-25.095l-35.122-9.411c.771-3.095 1.186-6.329 1.186-9.659v-120.42c0-22.056-17.944-40-40-40h-208.665c-22.056 0-40 17.944-40 40v120.42c0 22.056 17.944 40 40 40h208.667c2.077 0 4.118-.16 6.111-.467l10.008 37.353c3.005 11.207 16.983 14.838 25.096 6.724l9.116-9.116 10.421 10.421c5.857 5.858 15.355 5.859 21.213 0 5.858-5.858 5.858-15.355 0-21.213zm-175.713-110.796c-.055 0-.109-.004-.164-.004s-.109.004-.164.004c-12.053-.089-21.831-9.917-21.831-21.99 0-12.128 9.867-21.995 21.995-21.995s21.994 9.867 21.994 21.995c0 12.072-9.778 21.901-21.83 21.99zm-114.497 57.515v-120.42c0-5.514 4.486-10 10-10h93.776c-23.625 4.892-41.437 25.862-41.437 50.915 0 13.15 4.916 25.166 12.995 34.332-17.396 12.227-28.829 32.379-28.988 55.173h-36.346c-5.515 0-10-4.486-10-10zm76.336 10c.259-20.677 17.116-37.426 37.833-37.515.055 0 .109.004.164.004s.109-.004.164-.004c20.716.089 37.574 16.838 37.833 37.515zm105.985 0c-.16-22.794-11.592-42.947-28.988-55.174 8.078-9.166 12.995-21.182 12.995-34.332 0-25.053-17.812-46.023-41.436-50.915h93.775c5.514 0 10 4.486 10 10v120.42c0 5.514-4.486 10-10 10h-36.346z"/></g></g></svg>